<?xml version="1.0" encoding="utf-8"?>
<!-- Generator: Adobe Illustrator 26.5.0, SVG Export Plug-In . SVG Version: 6.00 Build 0)  -->
<svg version="1.1" id="katman_1" xmlns="http://www.w3.org/2000/svg" xmlns:xlink="http://www.w3.org/1999/xlink" x="0px" y="0px"
	 viewBox="0 0 24 24" style="enable-background:new 0 0 24 24;" xml:space="preserve">
<style type="text/css">
	.st0{fill:#FFFFFF;}
</style>
<path class="st0" d="M12,22c-1.4,0-2.7-0.3-3.9-0.8S5.8,20,4.9,19.1s-1.6-2-2.1-3.2S2,13.4,2,12s0.3-2.7,0.8-3.9S4.1,5.8,5,4.9
	s2-1.6,3.2-2.1s2.6-0.8,4-0.8c1.3,0,2.6,0.2,3.8,0.7s2.2,1.1,3.1,1.9s1.6,1.8,2.1,2.9S22,9.8,22,11.1c0,1.9-0.6,3.4-1.8,4.4
	C19,16.5,17.6,17,16,17h-1.8c-0.2,0-0.3,0-0.3,0.1c-0.1,0.1-0.1,0.2-0.1,0.3c0,0.2,0.1,0.5,0.4,0.9s0.4,0.8,0.4,1.3
	c0,0.8-0.2,1.5-0.7,1.9S12.8,22,12,22z M6.5,13c0.4,0,0.8-0.1,1.1-0.4C7.9,12.3,8,11.9,8,11.5s-0.1-0.8-0.4-1.1
	C7.3,10.1,6.9,10,6.5,10s-0.8,0.1-1.1,0.4S5,11.1,5,11.5s0.1,0.8,0.4,1.1S6.1,13,6.5,13z M9.5,9c0.4,0,0.8-0.1,1.1-0.4
	C10.9,8.3,11,7.9,11,7.5s-0.1-0.8-0.4-1.1C10.3,6.1,9.9,6,9.5,6S8.7,6.1,8.4,6.4S8,7.1,8,7.5s0.1,0.8,0.4,1.1S9.1,9,9.5,9z M14.5,9
	c0.4,0,0.8-0.1,1.1-0.4S16,7.9,16,7.5s-0.1-0.8-0.4-1.1S14.9,6,14.5,6s-0.8,0.1-1.1,0.4S13,7.1,13,7.5s0.1,0.8,0.4,1.1
	S14.1,9,14.5,9z M17.5,13c0.4,0,0.8-0.1,1.1-0.4S19,12,19,11.5s-0.1-0.8-0.4-1.1S17.9,10,17.5,10s-0.8,0.1-1.1,0.4S16,11.1,16,11.5
	s0.1,0.8,0.4,1.1S17.1,13,17.5,13z M12,20c0.2,0,0.3,0,0.4-0.1s0.1-0.2,0.1-0.3c0-0.2-0.1-0.5-0.4-0.8c-0.2-0.3-0.4-0.8-0.4-1.4
	c0-0.7,0.2-1.3,0.7-1.7c0.5-0.4,1.1-0.6,1.8-0.6H16c1.1,0,2-0.3,2.8-1s1.2-1.6,1.2-3c0-2-0.8-3.7-2.3-5s-3.4-2-5.5-2
	C9.9,4,8,4.8,6.4,6.3S4,9.8,4,12s0.8,4.1,2.3,5.7C7.9,19.2,9.8,20,12,20z"/>
</svg>
