<?xml version="1.0" encoding="utf-8"?>
<!-- Generator: Adobe Illustrator 26.5.0, SVG Export Plug-In . SVG Version: 6.00 Build 0)  -->
<svg version="1.1" id="katman_1" xmlns="http://www.w3.org/2000/svg" xmlns:xlink="http://www.w3.org/1999/xlink" x="0px" y="0px"
	 viewBox="0 0 24 24" style="enable-background:new 0 0 24 24;" xml:space="preserve">
<style type="text/css">
	.st0{fill:#FFFFFF;}
</style>
<path class="st0" d="M12,22l-9-5V7l9-5l9,5v10L12,22z M9.1,9.2c0.4-0.4,0.8-0.7,1.3-0.9S11.4,8,12,8s1.1,0.1,1.6,0.3
	s0.9,0.5,1.3,0.9l3-1.7L12,4.3L6.1,7.6L9.1,9.2z M11,19.1v-3.3c-0.9-0.2-1.6-0.7-2.2-1.4C8.3,13.7,8,12.9,8,12c0-0.2,0-0.4,0-0.5
	c0-0.2,0-0.3,0.1-0.5L5,9.2v6.6L11,19.1z M12,14c0.6,0,1-0.2,1.4-0.6S14,12.6,14,12s-0.2-1-0.6-1.4S12.6,10,12,10s-1,0.2-1.4,0.6
	S10,11.4,10,12s0.2,1,0.6,1.4S11.4,14,12,14z M13,19.1l6-3.3V9.2L15.9,11c0.1,0.2,0.1,0.3,0.1,0.5s0,0.3,0,0.5
	c0,0.9-0.3,1.7-0.8,2.4s-1.3,1.2-2.2,1.4V19.1z"/>
</svg>
